<svg xmlns="http://www.w3.org/2000/svg" xmlns:xlink="http://www.w3.org/1999/xlink" width="500" zoomAndPan="magnify" viewBox="0 0 375 374.999991" height="500" preserveAspectRatio="xMidYMid meet" version="1.0"><defs><clipPath id="7f48160246"><path d="M 160.375 154.21875 L 269 154.21875 L 269 286.96875 L 160.375 286.96875 Z M 160.375 154.21875 " clip-rule="nonzero"/></clipPath><clipPath id="2a83ca0079"><path d="M 106.128906 87.660156 L 214.878906 87.660156 L 214.878906 220.410156 L 106.128906 220.410156 Z M 106.128906 87.660156 " clip-rule="nonzero"/></clipPath></defs><rect x="-37.5" width="450" fill="#ffffff" y="-37.499999" height="449.999989" fill-opacity="1"/><rect x="-37.5" width="450" fill="#004aad" y="-37.499999" height="449.999989" fill-opacity="1"/><g clip-path="url(#7f48160246)"><path fill="#ffffff" d="M 160.378906 287.289062 L 160.378906 203.417969 L 194.492188 203.417969 L 194.492188 216.15625 L 224.515625 216.167969 C 227.261719 216.167969 229.835938 215.101562 231.765625 213.167969 C 233.699219 211.234375 234.761719 208.660156 234.757812 205.925781 L 234.742188 198.574219 C 234.734375 192.957031 230.15625 188.378906 224.535156 188.367188 L 196.222656 188.378906 L 172.871094 154.300781 L 224.574219 154.285156 C 248.941406 154.332031 268.789062 174.171875 268.832031 198.511719 L 268.847656 205.867188 C 268.867188 217.71875 264.265625 228.863281 255.894531 237.246094 C 247.519531 245.632812 236.382812 250.253906 224.53125 250.253906 L 194.492188 250.277344 L 194.492188 287.289062 Z M 160.378906 287.289062 " fill-opacity="1" fill-rule="nonzero"/></g><g clip-path="url(#2a83ca0079)"><path fill="#ffffff" d="M 106.132812 220.730469 L 106.132812 136.859375 L 140.246094 136.859375 L 140.246094 149.59375 L 170.269531 149.609375 C 173.015625 149.609375 175.589844 148.542969 177.519531 146.609375 C 179.453125 144.671875 180.515625 142.101562 180.511719 139.367188 L 180.496094 132.011719 C 180.488281 126.398438 175.910156 121.820312 170.289062 121.808594 L 141.976562 121.820312 L 118.625 87.742188 L 170.328125 87.726562 C 194.691406 87.773438 214.542969 107.613281 214.585938 131.953125 L 214.597656 139.304688 C 214.621094 151.15625 210.019531 162.300781 201.648438 170.6875 C 193.273438 179.074219 182.136719 183.691406 170.285156 183.691406 L 140.246094 183.714844 L 140.246094 220.730469 Z M 106.132812 220.730469 " fill-opacity="1" fill-rule="nonzero"/></g></svg>